<?xml version="1.0" standalone="no"?>
<!DOCTYPE svg PUBLIC "-//W3C//DTD SVG 20010904//EN"
 "http://www.w3.org/TR/2001/REC-SVG-20010904/DTD/svg10.dtd">
<svg version="1.0" xmlns="http://www.w3.org/2000/svg"
 width="127.000000pt" height="127.000000pt" viewBox="0 0 127.000000 127.000000"
 preserveAspectRatio="xMidYMid meet">
<metadata>
Created by potrace 1.14, written by Peter Selinger 2001-2017
</metadata>
<g transform="translate(0.000000,127.000000) scale(0.100000,-0.100000)"
fill="#000000" stroke="none">
<path d="M542 1245 c-19 -8 -51 -29 -73 -46 -21 -16 -70 -41 -109 -53 -99 -33
-133 -70 -177 -190 -43 -121 -62 -384 -35 -492 6 -21 13 -51 16 -66 3 -15 13
-34 22 -43 15 -14 23 -36 41 -115 8 -30 24 -48 41 -42 14 4 16 -14 2 -23 -23
-14 -1 -47 35 -50 15 -2 39 -15 54 -29 34 -32 42 -32 71 -1 19 20 23 34 21 79
-1 30 -9 74 -17 98 -26 71 -33 98 -25 98 4 0 17 -21 29 -48 38 -83 143 -195
252 -266 62 -41 85 -45 93 -16 3 13 10 18 21 14 30 -12 16 21 -15 35 -17 7
-33 21 -37 30 -3 9 -27 36 -54 62 -26 25 -48 52 -48 61 0 9 -6 18 -14 21 -8 3
-21 25 -28 49 -7 24 -19 48 -27 54 -8 6 -12 20 -9 32 4 14 0 22 -13 25 -13 4
-19 14 -19 35 0 17 -6 32 -15 36 -8 3 -15 10 -15 16 0 6 -7 18 -15 26 -27 27
-19 47 18 41 37 -5 77 10 77 30 0 17 10 17 30 -2 13 -12 23 -13 43 -6 18 7 28
7 32 0 4 -5 15 -7 26 -4 18 6 19 1 19 -69 0 -63 3 -77 20 -89 19 -13 18 -57
-1 -57 -5 0 -14 -12 -20 -27 -12 -32 1 -44 40 -34 22 6 26 12 23 39 -3 31 11
44 21 20 3 -7 6 -3 6 10 1 12 6 22 11 22 16 0 12 40 -5 46 -18 7 -21 84 -4
101 7 7 2 15 -15 27 -15 9 -26 24 -26 33 0 9 -11 31 -25 49 -20 26 -34 33 -77
40 -46 7 -49 8 -24 13 17 3 29 9 28 14 -1 4 -2 12 -2 17 0 6 -9 10 -20 10 -20
0 -110 58 -110 71 0 4 16 13 35 21 l35 14 -35 18 c-18 10 -36 25 -39 32 -3 9
6 6 27 -6 36 -22 47 -25 47 -10 0 6 -6 10 -14 10 -8 0 -24 9 -37 20 l-24 21
33 -16 c46 -22 51 -12 8 15 -36 21 -50 45 -21 34 10 -4 15 0 15 12 0 14 5 10
20 -13 10 -17 28 -37 39 -42 19 -11 19 -10 5 16 -17 34 -18 48 -1 36 21 -15
67 -33 67 -25 0 4 -21 20 -45 37 -25 16 -47 36 -50 43 -3 7 9 4 26 -8 16 -12
32 -20 35 -18 2 3 -13 17 -35 32 -41 29 -89 76 -61 61 8 -4 31 -19 50 -34 24
-17 30 -19 20 -6 -14 17 -13 18 3 12 11 -4 16 -3 12 3 -3 6 -12 10 -19 10 -16
0 -96 61 -96 73 0 5 8 3 17 -4 11 -10 14 -10 9 -1 -11 19 -3 15 69 -33 36 -25
71 -43 75 -40 5 3 12 -1 17 -9 9 -17 83 -51 83 -38 0 4 -6 14 -12 22 -7 7 4 1
25 -15 20 -15 37 -25 37 -22 0 18 -113 116 -157 136 -29 13 -50 28 -47 32 6
10 -29 29 -55 29 -23 0 -28 15 -8 23 6 3 1 6 -13 6 -14 0 -40 -6 -58 -14z
m181 -128 c-3 -4 -6 -7 -7 -5 -1 2 -8 12 -16 22 -14 18 -14 18 7 6 12 -8 19
-18 16 -23z m-234 -216 c-2 -6 -10 2 -17 17 -11 25 -11 25 4 10 9 -9 15 -21
13 -27z m-49 -137 c21 -33 48 -51 47 -31 -1 41 3 49 18 37 10 -8 15 -9 15 -2
0 6 -8 15 -17 21 -14 7 -15 13 -7 21 9 9 27 5 73 -16 34 -16 61 -32 61 -36 0
-11 -18 -10 -40 2 -15 8 -18 7 -14 -4 3 -9 -5 -17 -25 -24 -17 -6 -31 -16 -31
-21 0 -22 -37 -10 -67 22 -48 50 -59 81 -53 147 1 14 6 1 11 -29 5 -30 18 -69
29 -87z m130 106 c0 -5 -2 -10 -4 -10 -3 0 -8 5 -11 10 -3 6 -1 10 4 10 6 0
11 -4 11 -10z m-99 -32 c11 -21 11 -22 -4 -9 -10 7 -17 17 -17 22 0 15 9 10
21 -13z m159 -134 c0 -12 -95 -108 -107 -110 -16 -3 -16 1 -2 29 19 36 72 87
91 87 10 0 18 -3 18 -6z m-296 -39 c3 -8 1 -15 -4 -15 -6 0 -10 7 -10 15 0 8
2 15 4 15 2 0 6 -7 10 -15z m346 -40 c0 -8 -4 -15 -10 -15 -5 0 -10 7 -10 15
0 8 5 15 10 15 6 0 10 -7 10 -15z m-309 -52 c13 -16 12 -17 -3 -4 -17 13 -22
21 -14 21 2 0 10 -8 17 -17z m429 -118 c-7 -9 -15 -13 -17 -11 -7 7 7 26 19
26 6 0 6 -6 -2 -15z m-222 -142 c9 -10 17 -22 18 -28 0 -5 6 -23 12 -39 14
-33 12 -39 -12 -30 -21 8 -46 56 -46 89 0 30 4 31 28 8z"/>
<path d="M710 1010 c20 -13 33 -13 25 0 -3 6 -14 10 -23 10 -15 0 -15 -2 -2
-10z"/>
<path d="M840 1012 c0 -12 19 -26 26 -19 2 2 -2 10 -11 17 -9 8 -15 8 -15 2z"/>
<path d="M670 956 c0 -2 8 -10 18 -17 15 -13 16 -12 3 4 -13 16 -21 21 -21 13z"/>
<path d="M890 936 c0 -2 7 -9 15 -16 9 -7 15 -8 15 -2 0 5 -7 12 -15 16 -8 3
-15 4 -15 2z"/>
<path d="M952 824 c10 -10 20 -15 24 -12 3 4 -5 12 -18 18 -22 12 -22 12 -6
-6z"/>
<path d="M876 721 c-30 -31 -32 -64 -4 -69 12 -2 15 2 11 17 -7 27 8 27 25 1
7 -11 18 -17 27 -14 11 5 12 10 5 18 -14 18 9 39 27 25 8 -7 13 -8 13 -1 0 5
-7 12 -15 16 -8 3 -14 11 -13 18 6 27 -47 20 -76 -11z m64 9 c0 -5 -4 -10 -10
-10 -5 0 -10 5 -10 10 0 6 5 10 10 10 6 0 10 -4 10 -10z"/>
<path d="M1035 706 c2 -22 9 -44 15 -50 15 -15 12 23 -6 59 l-14 30 5 -39z"/>
<path d="M1070 630 c0 -10 9 -24 19 -30 19 -9 19 -8 4 20 -17 35 -23 38 -23
10z"/>
<path d="M903 328 c1 -8 -11 -14 -30 -16 -21 -2 -33 1 -33 9 0 8 -4 8 -12 1
-7 -5 -24 -12 -38 -14 -20 -2 -24 -8 -22 -27 1 -16 -2 -22 -12 -18 -10 4 -12
0 -9 -14 3 -10 9 -19 13 -19 5 0 12 -9 15 -21 9 -28 48 -42 56 -20 4 10 -1 21
-13 29 -33 24 -9 32 37 12 42 -18 45 -18 63 -2 11 9 25 31 32 49 10 27 10 35
-3 48 -19 18 -48 20 -44 3z"/>
</g>
</svg>
