<?xml version="1.0" standalone="no"?>
<!DOCTYPE svg PUBLIC "-//W3C//DTD SVG 20010904//EN"
 "http://www.w3.org/TR/2001/REC-SVG-20010904/DTD/svg10.dtd">
<svg version="1.0" xmlns="http://www.w3.org/2000/svg"
 width="370.000000pt" height="370.000000pt" viewBox="0 0 370.000000 370.000000"
 preserveAspectRatio="xMidYMid meet">
<metadata>
Created by potrace 1.14, written by Peter Selinger 2001-2017
</metadata>
<g transform="translate(0.000000,370.000000) scale(0.100000,-0.100000)"
fill="#000000" stroke="none">
<path d="M1800 3560 c-8 -5 -51 -10 -95 -10 -70 0 -88 -4 -160 -37 -118 -55
-192 -105 -267 -180 -79 -79 -113 -138 -161 -283 -105 -317 -87 -516 84 -926
32 -78 59 -144 59 -148 0 -5 12 -32 85 -191 15 -33 34 -82 42 -110 8 -27 22
-58 30 -67 8 -9 12 -22 8 -28 -4 -6 1 -20 11 -31 17 -19 17 -20 -4 -39 -21
-20 -21 -20 -27 1 -11 34 -57 107 -50 79 5 -22 4 -23 -5 -7 -7 10 -9 25 -6 32
3 8 1 14 -5 12 -12 -2 -9 -8 -81 143 -52 111 -78 185 -78 233 -1 12 -7 39 -14
59 -8 21 -10 35 -5 32 5 -3 9 0 9 5 0 6 -4 11 -9 11 -5 0 -7 9 -4 19 3 10 -3
30 -12 45 -9 14 -14 30 -11 35 4 5 3 12 -2 15 -5 3 -17 34 -27 70 -13 44 -22
63 -32 59 -7 -3 -13 -9 -13 -15 0 -5 4 -7 8 -4 5 3 6 -8 4 -24 -2 -17 -8 -27
-13 -24 -5 3 -9 1 -9 -5 0 -6 -6 -8 -14 -5 -9 3 -15 -5 -19 -24 -6 -30 0 -129
9 -143 3 -5 7 -34 9 -65 2 -31 8 -61 14 -67 5 -7 17 -50 26 -95 19 -95 47
-187 76 -249 10 -24 19 -47 19 -52 0 -8 52 -128 68 -156 3 -5 -2 -4 -11 4 -9
7 -17 17 -17 22 0 5 -16 42 -35 81 -39 82 -105 251 -105 270 -1 7 -14 51 -30
98 l-29 85 -1 -86 c0 -98 19 -223 50 -318 26 -83 34 -155 25 -226 l-7 -56 -26
26 c-26 26 -26 27 -7 41 25 18 27 101 4 154 l-16 35 0 -35 c0 -19 4 -40 9 -47
6 -7 5 -14 -2 -18 -8 -5 -8 -11 0 -20 7 -9 6 -16 -4 -24 -12 -10 -14 -32 -11
-102 2 -49 7 -98 10 -109 4 -11 4 -20 1 -20 -3 0 -13 27 -23 60 -9 33 -20 60
-24 60 -13 0 -36 -37 -49 -80 -13 -40 -15 -42 -18 -18 -4 29 -32 62 -32 37 0
-8 -14 -30 -30 -49 -16 -19 -30 -37 -30 -40 0 -10 17 -27 73 -74 59 -50 79
-83 28 -47 -68 49 -177 76 -284 72 -39 -2 -117 -36 -117 -52 0 -5 -7 -9 -15
-9 -8 0 -15 -4 -15 -8 0 -12 49 -37 56 -29 4 3 16 1 27 -4 15 -8 22 -8 28 2 4
7 5 17 3 21 -9 13 31 9 51 -6 17 -12 17 -16 6 -30 -11 -14 -16 -14 -23 -4 -8
10 -11 10 -15 0 -2 -6 -9 -10 -14 -6 -5 3 -9 -2 -9 -12 0 -11 6 -15 20 -11 11
3 18 1 15 -3 -3 -5 2 -15 10 -23 17 -17 20 -47 5 -47 -5 0 -7 -6 -4 -14 3 -8
1 -17 -4 -20 -5 -3 -9 2 -8 11 0 9 -5 18 -12 20 -7 3 -12 1 -11 -4 5 -28 -3
-34 -38 -33 -68 3 -78 -3 -49 -33 12 -11 11 -15 -6 -26 -18 -11 -24 -9 -52 17
-17 16 -40 32 -50 36 -17 6 -17 4 -5 -11 7 -10 21 -27 30 -38 24 -27 78 -138
73 -147 -7 -11 -44 14 -44 30 0 7 -7 15 -15 18 -8 4 -15 12 -15 18 0 7 -12 18
-26 24 -16 8 -22 17 -18 25 4 6 4 9 -1 5 -4 -4 -18 1 -31 11 -14 11 -38 17
-63 17 -23 -1 -41 2 -41 5 0 8 -54 4 -68 -5 -7 -4 -12 -3 -12 3 0 7 -10 6 -30
0 -36 -13 -38 -22 -6 -37 68 -31 220 -194 272 -293 28 -52 123 -293 118 -298
-5 -5 -2 -11 -47 82 -20 42 -37 82 -37 89 0 6 -17 34 -38 62 -20 28 -44 63
-51 79 -8 15 -18 27 -22 27 -5 0 -6 7 -3 15 4 10 0 15 -10 15 -9 0 -19 7 -22
15 -4 8 -12 15 -20 15 -8 0 -14 6 -14 14 0 9 -7 13 -19 11 -14 -2 -21 4 -25
21 -4 14 -12 24 -19 23 -11 -2 -35 6 -87 28 -8 3 -22 7 -31 7 -9 1 -22 6 -30
11 -8 6 -26 12 -41 14 -26 2 -28 0 -28 -31 0 -30 6 -36 64 -70 84 -49 119 -80
167 -144 33 -45 140 -244 139 -259 0 -3 7 -22 15 -42 9 -20 13 -43 10 -51 -3
-8 -1 -20 3 -26 5 -6 12 -23 16 -38 l6 -27 900 -1 c854 0 900 1 901 17 1 21 7
58 14 91 3 13 10 20 16 16 7 -4 7 -10 1 -16 -13 -13 -4 -38 14 -38 14 0 18
-17 15 -52 -2 -17 12 -18 178 -18 156 0 181 2 181 15 0 9 -7 18 -16 22 -8 3
-13 12 -10 19 3 8 1 14 -4 14 -6 0 -10 7 -10 15 0 8 -4 15 -10 15 -5 0 -7 8
-3 17 5 15 3 14 -10 -2 l-16 -20 -1 20 c0 17 -2 17 -10 5 -7 -11 -10 -8 -9 15
0 17 3 24 6 18 2 -7 12 -13 21 -13 13 0 12 4 -4 23 -11 12 -19 32 -18 44 0 12
-2 20 -6 18 -4 -3 -11 2 -14 11 -3 9 -11 12 -18 8 -8 -5 -9 -2 -5 10 4 10 7
22 7 27 0 6 6 7 13 3 6 -4 4 2 -6 13 -10 11 -15 27 -11 37 3 9 1 22 -5 29 -6
8 -9 23 -6 35 5 29 -23 17 -31 -13 -3 -13 -12 -26 -19 -29 -21 -8 -14 36 9 59
17 16 21 33 21 85 0 36 3 80 7 98 5 28 4 31 -8 21 -8 -6 -31 -35 -51 -63 -46
-64 -92 -114 -118 -128 -17 -9 -18 -9 -9 3 6 8 42 55 81 104 122 157 159 239
260 570 98 324 146 527 197 830 72 425 69 652 -11 815 -42 84 -140 237 -175
273 -37 38 -190 170 -229 199 -20 15 -68 55 -107 90 -171 152 -229 190 -328
213 -75 18 -140 34 -158 41 -6 2 -18 -1 -26 -6z m290 -330 c0 -5 -5 -10 -11
-10 -5 0 -7 5 -4 10 3 6 8 10 11 10 2 0 4 -4 4 -10z m-210 -46 c0 -2 -9 0 -20
6 -11 6 -20 13 -20 16 0 2 9 0 20 -6 11 -6 20 -13 20 -16z m207 -19 c9 -25 -4
-29 -17 -6 -7 15 -7 21 0 21 6 0 13 -7 17 -15z m-257 -55 c0 -5 -2 -10 -4 -10
-3 0 -8 5 -11 10 -3 6 -1 10 4 10 6 0 11 -4 11 -10z m203 -126 c165 -42 351
-183 505 -381 31 -41 79 -102 106 -136 61 -78 73 -104 58 -119 -14 -14 -47 14
-102 87 -45 61 -260 280 -315 321 -22 17 -56 38 -75 47 -19 9 -48 25 -65 37
-16 11 -54 25 -82 31 -29 7 -53 15 -53 19 0 4 -11 5 -25 2 -15 -2 -25 0 -25 7
0 6 -5 11 -11 11 -5 0 -8 -3 -5 -8 6 -10 -75 -9 -91 1 -6 4 -24 2 -39 -3 -15
-6 -56 -13 -91 -15 -74 -6 -213 -49 -242 -76 -11 -10 -28 -19 -37 -19 -9 0
-24 -8 -33 -17 -9 -10 -34 -28 -56 -40 -22 -11 -56 -30 -75 -40 -19 -11 -57
-25 -83 -33 -43 -12 -50 -11 -65 4 -16 16 -16 18 2 32 11 8 27 14 36 14 9 0
34 15 56 33 65 55 134 97 159 97 13 0 25 5 27 10 2 6 17 12 33 14 18 2 31 10
33 20 3 12 10 15 25 11 17 -5 19 -4 7 4 -16 11 -21 8 63 36 27 9 55 14 63 11
8 -3 13 -2 9 3 -5 10 60 37 105 44 67 11 227 6 283 -9z m-289 -438 c-4 -9 6
-16 31 -20 20 -4 45 -16 57 -28 l20 -20 -33 5 c-19 3 -54 10 -79 17 -25 6 -59
9 -76 5 -61 -11 -128 -15 -119 -7 6 5 30 14 55 22 25 7 63 19 85 26 52 17 66
17 59 0z m-364 -4 c0 -15 -44 -49 -102 -80 -47 -26 -57 -28 -62 -15 -4 8 -13
13 -21 9 -14 -5 -35 27 -35 52 0 4 33 8 74 8 45 1 84 8 102 18 33 17 44 19 44
8z m308 -86 c-43 -11 -78 -24 -78 -28 0 -4 17 -9 38 -11 22 -2 10 -4 -31 -5
-52 -2 -69 1 -73 13 -4 8 -12 15 -20 15 -8 0 -14 3 -14 8 0 18 42 30 115 31
43 1 80 3 82 5 2 2 16 1 31 -2 22 -5 13 -10 -50 -26z m188 -15 c-10 -16 -116
-43 -143 -36 -37 9 -11 25 42 25 22 0 47 5 55 10 19 12 53 13 46 1z m258 -50
c15 -28 14 -30 -18 -64 -32 -34 -53 -87 -35 -87 5 0 28 8 51 18 31 12 70 17
139 17 85 0 99 -3 132 -25 41 -28 45 -37 21 -55 -13 -9 -28 -7 -72 8 -31 10
-86 21 -123 24 -58 5 -72 3 -104 -17 -29 -18 -35 -27 -31 -44 3 -11 6 -27 6
-35 0 -8 7 -11 19 -8 12 3 22 -1 25 -9 7 -19 26 -18 26 1 0 17 -9 17 145 5
101 -8 122 -7 136 6 14 13 18 13 29 -1 10 -12 11 -43 7 -124 -6 -97 -16 -145
-48 -216 -4 -11 -18 -44 -29 -74 -11 -30 -27 -63 -35 -74 -13 -19 -38 -92 -49
-147 -3 -14 -21 -43 -41 -64 -19 -21 -35 -46 -35 -56 0 -25 -44 -87 -113 -159
-105 -108 -262 -160 -339 -113 -41 25 -75 70 -93 122 -12 35 -12 41 2 48 14 8
14 11 -4 29 -33 33 -69 87 -83 123 -7 19 -35 82 -62 140 -27 58 -54 114 -59
125 -16 36 -78 215 -74 215 2 0 -2 19 -10 41 -8 23 -15 52 -15 64 0 38 130
159 145 134 7 -10 50 -8 153 7 32 5 42 10 40 23 -1 9 1 21 5 28 4 7 1 26 -7
42 -18 33 -8 42 35 34 31 -6 69 21 52 37 -18 20 15 43 102 72 97 32 110 35
157 37 32 1 40 -3 52 -28z m-806 -49 c5 -16 -28 -23 -34 -7 -4 8 -12 15 -19
15 -6 0 -20 9 -29 19 -18 20 -18 20 30 2 27 -10 50 -23 52 -29z m141 4 c-12
-10 -60 -16 -54 -6 3 5 18 10 32 10 15 0 24 -2 22 -4z m121 -36 c29 -16 -61
-23 -113 -10 -46 12 -52 11 -64 -6 -23 -32 -16 -47 13 -27 27 17 27 17 15 -5
-14 -26 -85 -65 -109 -59 -13 3 -11 7 11 17 15 7 27 17 27 22 0 5 -5 6 -12 2
-7 -5 -9 -2 -5 8 4 12 0 15 -19 13 -41 -4 -8 24 43 36 24 6 46 15 48 20 6 9
143 0 165 -11z m74 -105 c23 -17 13 -35 -20 -35 -25 0 -28 7 -18 34 7 19 13
20 38 1z m650 -44 c3 -5 -1 -12 -10 -15 -20 -8 -29 -1 -19 13 8 13 22 14 29 2z
m-1724 -1335 c0 -3 -4 -8 -10 -11 -5 -3 -10 -1 -10 4 0 6 5 11 10 11 6 0 10
-2 10 -4z m1990 -766 c0 -5 -2 -10 -4 -10 -3 0 -8 5 -11 10 -3 6 -1 10 4 10 6
0 11 -4 11 -10z"/>
<path d="M1540 2910 c-13 -8 -12 -10 3 -10 9 0 17 5 17 10 0 12 -1 12 -20 0z"/>
<path d="M1248 2483 c7 -3 16 -2 19 1 4 3 -2 6 -13 5 -11 0 -14 -3 -6 -6z"/>
<path d="M1780 1755 c-16 -20 -5 -48 17 -41 10 2 33 8 51 11 32 7 33 8 16 26
-20 23 -67 25 -84 4z"/>
<path d="M2012 1744 c-27 -19 -28 -34 -2 -34 10 0 23 -7 28 -17 13 -22 38 -10
44 22 4 18 0 29 -13 35 -24 13 -31 13 -57 -6z"/>
<path d="M1850 1514 c-148 -17 -222 -35 -212 -51 4 -7 50 -26 102 -43 161 -54
204 -82 113 -73 -27 2 -65 14 -86 25 -21 11 -41 17 -45 13 -10 -10 90 -93 120
-99 30 -6 118 7 160 23 34 13 118 89 118 106 0 6 9 20 20 30 26 24 25 31 -7
43 -44 17 -140 42 -155 41 -7 -1 -65 -8 -128 -15z m93 -51 c-7 -2 -19 -2 -25
0 -7 3 -2 5 12 5 14 0 19 -2 13 -5z m107 -73 c-13 -24 -105 -54 -128 -41 -13
7 -12 10 7 21 13 6 25 9 29 6 3 -3 12 0 21 8 14 12 26 16 74 25 4 0 3 -8 -3
-19z"/>
<path d="M807 1191 c-17 -6 -18 -8 -3 -20 18 -15 29 -10 24 12 -2 9 -9 12 -21
8z"/>
<path d="M505 1109 c-22 -10 -61 -36 -87 -57 -25 -20 -54 -43 -64 -50 -26 -17
55 24 86 44 18 12 16 8 -7 -15 -58 -55 -45 -50 75 27 29 19 52 38 52 43 0 11
-30 0 -52 -19 -9 -8 -23 -12 -30 -10 -7 3 6 15 30 27 23 12 42 24 42 26 0 7 1
7 -45 -16z"/>
<path d="M258 946 c-10 -7 -18 -16 -18 -20 0 -10 48 -7 55 4 4 6 -1 7 -12 3
-16 -6 -16 -5 -4 10 16 20 3 22 -21 3z"/>
<path d="M2870 561 c0 -39 -5 -73 -11 -76 -15 -10 -19 -3 -27 46 -4 24 -12 44
-17 44 -12 0 -20 -80 -30 -285 -3 -85 -10 -185 -14 -223 l-7 -67 159 0 160 0
-6 93 c-6 95 -56 288 -76 295 -6 2 -11 13 -12 25 0 29 -90 209 -106 215 -10 3
-13 -15 -13 -67z m-18 -128 c-6 -3 -9 -10 -6 -16 5 -9 4 -9 -6 0 -7 6 -10 19
-6 29 5 14 9 15 19 4 9 -10 9 -13 -1 -17z m131 -104 c-6 -6 -7 3 -4 23 4 28 6
29 9 9 2 -13 0 -27 -5 -32z"/>
<path d="M30 564 c0 -4 8 -14 18 -23 9 -9 22 -24 27 -33 30 -49 92 -136 116
-160 44 -47 68 -33 44 25 -8 19 -11 38 -7 43 4 5 -1 2 -10 -5 -16 -12 -18 -11
-18 8 0 11 -4 21 -10 21 -5 0 -10 7 -10 15 0 8 -5 15 -11 15 -5 0 -24 13 -42
30 -18 16 -37 30 -44 30 -7 0 -17 9 -23 20 -10 19 -30 28 -30 14z"/>
<path d="M2682 400 c1 -14 6 -31 11 -37 5 -7 5 -13 1 -13 -14 0 -4 -88 12
-101 8 -6 14 -18 14 -25 0 -8 5 -14 10 -14 13 0 13 17 0 25 -6 4 -7 12 -3 18
9 15 4 59 -8 72 -5 5 -9 21 -9 35 0 14 -6 35 -14 46 -14 18 -15 18 -14 -6z"/>
<path d="M13 343 c-7 -3 -13 -20 -13 -39 0 -26 6 -37 27 -48 16 -8 49 -35 75
-60 26 -25 50 -46 52 -46 10 0 -7 35 -21 43 -7 4 -13 16 -13 25 0 13 -2 14 -8
4 -6 -9 -12 -6 -20 13 -6 14 -8 25 -3 25 5 0 11 -6 14 -12 3 -7 4 -3 4 9 -1
12 -3 20 -5 18 -8 -7 -52 40 -48 51 5 13 -21 23 -41 17z"/>
<path d="M264 305 c-17 -13 -17 -14 -2 -15 9 0 20 5 23 11 11 17 0 20 -21 4z"/>
<path d="M2 94 l3 -89 85 -2 c47 0 77 1 68 4 -10 2 -18 12 -18 21 -1 15 -3 14
-17 -3 -13 -16 -15 -17 -10 -2 4 10 1 17 -6 17 -7 0 -3 7 7 15 19 15 19 15 -5
16 -20 1 -21 2 -4 6 17 5 15 7 -10 18 -25 11 -26 14 -10 15 17 2 16 3 -5 10
-18 6 -20 8 -7 9 30 2 8 21 -24 21 -16 0 -28 5 -26 11 1 6 -4 14 -11 16 -11 4
-13 -13 -10 -83z"/>
<path d="M3130 82 c0 -11 -3 -34 -6 -51 l-6 -31 46 0 c25 0 46 3 46 8 -1 13
-55 85 -67 90 -8 2 -13 -5 -13 -16z"/>
</g>
</svg>
